<svg xmlns="http://www.w3.org/2000/svg" xmlns:xlink="http://www.w3.org/1999/xlink" width="100%" height="500" viewBox="0 0 1924.158 748.093" class="qtat-svg-info qanim">
    <defs>
       <style>.Ta{fill:#10223e;font-weight:600;}.Ta,.Tb{font-size:23px;}.Tb,.Ti{fill:#5d7191;}.Tc,.Td,.Te,.Th,.Tk{fill:none;}.Tc,.Tf{stroke:#c12930;}.Td,.Te{stroke:#c12930;stroke-dasharray:5;}.Td,.Th{opacity:0.4;}.Te{opacity:0.6;}.Tf,.Tg{fill:#c12930;}.Tf{opacity:0.24;}.Tj,.Tl{stroke:none;}.Tl{fill:#c12930;}.Tm{filter:url(#o);}.Tn{filter:url(#m);}.To{filter:url(#k);}.Tp{filter:url(#i);}.Tq{filter:url(#g);}.Tr{filter:url(#e);}.Ts{filter:url(#c);}.Tt{filter:url(#a);}
            .quickerTAT.active .qanim .qtat{
                opacity: 0;
            } 
            .quickerTAT.active .qanim .qtat-1{
                stroke-dasharray: 2500;
                stroke-dashoffset: 2500;
                animation: dash 2s linear forwards;
                opacity: 1;
            }           
            .quickerTAT.active .qanim .qtat-2,.quickerTAT.active .qanim .qtat-9,.quickerTAT.active .qanim .qtat-16,.quickerTAT.active .qanim .qtat-23{
                animation: showAnim 1s linear forwards;
                animation-delay: 0.8s;
            }
            .quickerTAT.active .qanim .qtat-3,.quickerTAT.active .qanim .qtat-10,.quickerTAT.active .qanim .qtat-17,.quickerTAT.active .qanim .qtat-24{
                animation: showAnimOpacity 1s linear forwards;
                animation-delay: 0.9s;
            }
            .quickerTAT.active .qanim .qtat-4,.quickerTAT.active .qanim .qtat-11,.quickerTAT.active .qanim .qtat-18,.quickerTAT.active .qanim .qtat-25{
                animation: showAnim 1s linear forwards;
                animation-delay: 1.0s;
            }
            .quickerTAT.active .qanim .qtat-5,.quickerTAT.active .qanim .qtat-12,.quickerTAT.active .qanim .qtat-19,.quickerTAT.active .qanim .qtat-26{
                stroke-dasharray: 500;
                stroke-dashoffset: 500;
                animation: dash 1s linear forwards;
                animation-delay: 1.1s;
                opacity: 1;
            }
            .quickerTAT.active .qanim .qtat-6, .quickerTAT.active .qanim .qtat-13, .quickerTAT.active .qanim .qtat-20, .quickerTAT.active .qanim .qtat-27{
                animation: showAnim 1s linear forwards;
                animation-delay: 1.2s;
            }
            .quickerTAT.active .qanim .qtat-7, .quickerTAT.active .qanim .qtat-14, .quickerTAT.active .qanim .qtat-21, .quickerTAT.active .qanim .qtat-28{
                animation: showAnim 1s linear forwards;
                animation-delay: 1.3s;
            }
            .quickerTAT.active .qanim .qtat-8, .quickerTAT.active .qanim .qtat-15, .quickerTAT.active .qanim .qtat-22, .quickerTAT.active .qanim .qtat-29{
                animation: showAnim 1s linear forwards;
                animation-delay: 1.4s;
            }
            .quickerTAT.active .qanim .qtat-9{             
                animation-delay: 1.5s;
            }
            .quickerTAT.active .qanim .qtat-10{                
                animation-delay: 1.6s;
            }
            .quickerTAT.active .qanim .qtat-11{                
                animation-delay: 1.7s;
            }
            .quickerTAT.active .qanim .qtat-12{                
                animation-delay: 1.8s;
            }
            .quickerTAT.active .qanim .qtat-13{                
                animation-delay: 1.9s;
            }
            .quickerTAT.active .qanim .qtat-14{                
                animation-delay: 2.0s;
            }
            .quickerTAT.active .qanim .qtat-15{                
                animation-delay: 2.1s;
            }
            .quickerTAT.active .qanim .qtat-16{                
                animation-delay: 2.2s;
            }
            .quickerTAT.active .qanim .qtat-17{                
                animation-delay: 2.3s;
            }
            .quickerTAT.active .qanim .qtat-18{                
                animation-delay: 2.4s;
            }
            .quickerTAT.active .qanim .qtat-19{                
                animation-delay: 2.5s;
            }
            .quickerTAT.active .qanim .qtat-20{                
                animation-delay: 2.6s;
            }
            .quickerTAT.active .qanim .qtat-21{                
                animation-delay: 2.7s;
            }
            .quickerTAT.active .qanim .qtat-22{                
                animation-delay: 2.8s;
            }
            .quickerTAT.active .qanim .qtat-23{                
                animation-delay: 2.9s;
            }
            .quickerTAT.active .qanim .qtat-24{                
                animation-delay: 3.0s;
            }
            .quickerTAT.active .qanim .qtat-25{                
                animation-delay: 3.1s;
            }
            .quickerTAT.active .qanim .qtat-26{                
                animation-delay: 3.2s;
            }
            .quickerTAT.active .qanim .qtat-27{                
                animation-delay: 3.3s;
            }
            .quickerTAT.active .qanim .qtat-28{                
                animation-delay: 3.4s;
            }
            .quickerTAT.active .qanim .qtat-29{                
                animation-delay: 3.5s;
            }
            @keyframes showAnim {
                to {
                    opacity: 1;
                }
            }
            @keyframes showAnimOpacity {
                to {
                    opacity: 0.24;
                }
            }
            @keyframes dash {
                to {
                    stroke-dashoffset: 0;
                }
            }
            
        </style>
        <filter id="a" x="749.223" y="478.092" width="67" height="67" filterUnits="userSpaceOnUse">
            <feOffset dx="5" dy="5" input="SourceAlpha"/>
            <feGaussianBlur stdDeviation="7.5" result="b"/>
            <feFlood flood-color="#c12930"/>
            <feComposite operator="in" in2="b"/>
            <feComposite in="SourceGraphic"/>
        </filter>
        <filter id="c" x="739.223" y="468.092" width="67" height="67" filterUnits="userSpaceOnUse">
            <feOffset dx="-5" dy="-5" input="SourceAlpha"/>
            <feGaussianBlur stdDeviation="7.5" result="d"/>
            <feFlood flood-color="#fff"/>
            <feComposite operator="in" in2="d"/>
            <feComposite in="SourceGraphic"/>
        </filter>
        <filter id="e" x="989.223" y="353.092" width="67" height="67" filterUnits="userSpaceOnUse">
            <feOffset dx="5" dy="5" input="SourceAlpha"/>
            <feGaussianBlur stdDeviation="7.5" result="f"/>
            <feFlood flood-color="#c12930"/>
            <feComposite operator="in" in2="f"/>
            <feComposite in="SourceGraphic"/>
        </filter>
        <filter id="g" x="979.223" y="343.092" width="67" height="67" filterUnits="userSpaceOnUse">
            <feOffset dx="-5" dy="-5" input="SourceAlpha"/>
            <feGaussianBlur stdDeviation="7.5" result="h"/>
            <feFlood flood-color="#fff"/>
            <feComposite operator="in" in2="h"/>
            <feComposite in="SourceGraphic"/>
        </filter>
        <filter id="i" x="1267.223" y="359.092" width="67" height="67" filterUnits="userSpaceOnUse">
            <feOffset dx="5" dy="5" input="SourceAlpha"/>
            <feGaussianBlur stdDeviation="7.5" result="j"/>
            <feFlood flood-color="#c12930"/>
            <feComposite operator="in" in2="j"/>
            <feComposite in="SourceGraphic"/>
        </filter>
        <filter id="k" x="1257.223" y="349.092" width="67" height="67" filterUnits="userSpaceOnUse">
            <feOffset dx="-5" dy="-5" input="SourceAlpha"/>
            <feGaussianBlur stdDeviation="7.5" result="l"/>
            <feFlood flood-color="#fff"/>
            <feComposite operator="in" in2="l"/>
            <feComposite in="SourceGraphic"/>
        </filter>
        <filter id="m" x="469.223" y="452.092" width="67" height="67" filterUnits="userSpaceOnUse">
            <feOffset dx="5" dy="5" input="SourceAlpha"/>
            <feGaussianBlur stdDeviation="7.5" result="n"/>
            <feFlood flood-color="#c12930"/>
            <feComposite operator="in" in2="n"/>
            <feComposite in="SourceGraphic"/>
        </filter>
        <filter id="o" x="459.223" y="442.092" width="67" height="67" filterUnits="userSpaceOnUse">
            <feOffset dx="-5" dy="-5" input="SourceAlpha"/>
            <feGaussianBlur stdDeviation="7.5" result="p"/>
            <feFlood flood-color="#fff"/>
            <feComposite operator="in" in2="p"/>
            <feComposite in="SourceGraphic"/>
        </filter>
    </defs>
    <g transform="translate(0.024 -1798.813)">
        <text class="Ta qtat qtat-7" transform="translate(564.699 2060.905)">
            <tspan x="-52.84" y="0">Requirement</tspan>
        </text>
        <text class="Ta qtat qtat-14" transform="translate(833.699 2463.905)">
            <tspan x="-39.664" y="0">Execution</tspan>
        </text>
        <text class="Ta qtat qtat-21" transform="translate(1091.699 1995.856)">
            <tspan x="-61.2" y="0">Quality Checks</tspan>
            <tspan x="0" y="70"/>
        </text>
        <text class="Ta qtat qtat-28" transform="translate(1342.699 2333.004)">
            <tspan x="-33.104" y="0">Delivery</tspan>
        </text>
        <text class="Tb qtat qtat-8" transform="translate(511.699 2076.806)">
            <tspan x="0" y="17">You raise your request via </tspan>
            <tspan x="0" y="39">an email to your Single </tspan>
            <tspan x="0" y="61">Point Of Contact (SPOC) </tspan>
            <tspan x="0" y="83">from Amura</tspan>
        </text>
        <text class="Tb qtat qtat-15" transform="translate(793.699 2479.806)">
            <tspan x="0" y="17">That SPOC then gets the </tspan>
            <tspan x="0" y="39">work done from the </tspan>
            <tspan x="0" y="61">internal teams</tspan>
        </text>
        <text class="Tb qtat qtat-22" transform="translate(1030.699 2011.756)">
            <tspan x="0" y="17">The work goes through rigorous </tspan>
            <tspan x="0" y="39">quality checks by every team's </tspan>
            <tspan x="0" y="61">manager and finally the SPOC</tspan>
            <tspan x="0" y="83"/>
            <tspan x="0" y="105"/>
        </text>
        <text class="Tb qtat qtat-29" transform="translate(1309.699 2348.905)">
            <tspan x="0" y="17">It is emailed back/a </tspan>
            <tspan x="0" y="39">download link is sent to </tspan>
            <tspan x="0" y="61">you, meeting previous </tspan>
            <tspan x="0" y="83">agreed-upon deadlines</tspan>
            <tspan x="0" y="105"/>
            <tspan x="0" y="127"/>
        </text>
        <path class="Tc qtat-1" d="M-272.508,3721.4s28.721,37.337,97.007,53.783c48.857,11.767,117.952,12.845,211.265-18.071,86.849-23.666,163.565-64.107,289.925-9.819C501.189,3822.688,559,3690.7,594.1,3656.9s102.7-52,149.5-37.7,197.6,101.4,286,0,137.771-156.375,178.332-180.035c60.84-37.18,138.58-47.32,212.941-72.67,103.09-25.35,203.311-147.888,228.148-111.54" transform="translate(274.699 -1440.595)"/>
        <path class="Td qtat-30" d="M-272,3741.057s65.628,53.7,166.922,48.461c118.476-6.131,247.62-104.982,390.77-60C458.589,3776.318,475.8,3702,573.3,3627.9c83.2-75.4,140.4-57.2,191.1-36.4s153.4,120.9,241.8,9.1,141.8-138,179.489-170.312c70.77-46.923,174.491-46.1,280-85.385,86.281-32.123,156.015-108.177,180-73.077" transform="translate(274.699 -1463.595)"/>
        <path class="Te qtat-31" d="M-269.7,3718.6s52.153,57.543,176.154,54.38c106.045-2.705,218.025-97.928,372.842-58.461,172.9,46.8,199.1,22.282,283.6-63.518,78-81.9,141.7-76.7,192.4-55.9s179.4,111.8,267.8,0,126.435-137.5,178.744-176.735c33.846-26.154,183.338-44.32,267.691-89.231,120.925-64.381,139.232-93.077,173.848-81.538" transform="translate(274.699 -1438.595)"/>
        <path class="Te qtat-32" d="M-273.541,3674.182s57.092,66.72,170.77,67.692C18.445,3742.91,154.92,3658.028,239,3695.663c207,80,260,64,347-37,78-81.9,118.6-84.363,169.3-63.563s204.3,97.363,292.7-14.437,123.844-135.712,143.074-154.943c63.846-50.77,140.948-59.2,247.693-105.385,76.922-25.385,163.846-94.615,163.846-94.615s41.38-22.541,41.539-22.308" transform="translate(274.699 -1388.258)"/>
        <path class="Td qtat qtat-33" d="M-274.311,3647.392s45.561,66.608,150,73.077c126.564,7.839,280-70.769,344.615-44.615,207,80,278.7,83.81,365.7-17.19,78-81.9,118.6-84.363,169.3-63.563s204.3,97.363,292.7-14.437,97.689-107.886,154.613-165.579c45.385-43.077,136.03-63.949,250-110,99.688-40.281,164.186-111.273,190.77-123.846" transform="translate(274.699 -1356.084)"/>
        <g transform="translate(336.699 -1465.595)">
            <g class="Tf qtat qtat-10" transform="translate(407 3737)">
                <circle class="Tj" cx="34" cy="34" r="34"/>
                <circle class="Tk" cx="34" cy="34" r="33.5"/>
            </g>
            <g class="qtat qtat-9">
                <g class="Tt" transform="matrix(1, 0, 0, 1, -336.72, 3264.41)">
                    <circle class="Tg" cx="11" cy="11" r="11" transform="translate(766.72 495.59)"/>
                </g>
                <g class="Ts" transform="matrix(1, 0, 0, 1, -336.72, 3264.41)">
                    <circle class="Tg" cx="11" cy="11" r="11" transform="translate(766.72 495.59)"/>
                </g>
                <circle class="Tg" cx="11" cy="11" r="11" transform="translate(430 3760)"/>
            </g>
            <g class="Th qtat qtat-11" transform="translate(381 3711)">
                <path class="Tj" d="M60,0A60,60,0,1,1,0,60,60,60,0,0,1,60,0Z"/>
                <path class="Tl" d="M 60 1 C 52.03461456298828 1 44.30801391601563 2.559814453125 37.03485107421875 5.636100769042969 C 33.53907012939453 7.11468505859375 30.16732025146484 8.944831848144531 27.01323699951172 11.07568359375 C 23.88887023925781 13.18647003173828 20.95081329345703 15.61058044433594 18.28070068359375 18.28070068359375 C 15.61058044433594 20.95081329345703 13.18647003173828 23.88887023925781 11.07568359375 27.01323699951172 C 8.944831848144531 30.16732025146484 7.11468505859375 33.53907012939453 5.636100769042969 37.03485107421875 C 2.559814453125 44.30801391601563 1 52.03461456298828 1 60 C 1 67.96537780761719 2.559814453125 75.69198608398438 5.636100769042969 82.96514892578125 C 7.11468505859375 86.4609375 8.944831848144531 89.83268737792969 11.07568359375 92.98677062988281 C 13.18647003173828 96.11112976074219 15.61058044433594 99.04917907714844 18.28070068359375 101.7192993164063 C 20.95081329345703 104.3894195556641 23.88887023925781 106.8135375976563 27.01323699951172 108.92431640625 C 30.16732025146484 111.0551681518555 33.53907012939453 112.8853149414063 37.03485107421875 114.363899230957 C 44.30801391601563 117.440185546875 52.03461456298828 119 60 119 C 67.96537780761719 119 75.69198608398438 117.440185546875 82.96514892578125 114.363899230957 C 86.4609375 112.8853149414063 89.83268737792969 111.0551681518555 92.98677062988281 108.92431640625 C 96.11112976074219 106.8135375976563 99.04917907714844 104.3894195556641 101.7192993164063 101.7192993164063 C 104.3894195556641 99.04917907714844 106.8135375976563 96.11112976074219 108.92431640625 92.98677062988281 C 111.0551681518555 89.83268737792969 112.8853149414063 86.4609375 114.363899230957 82.96514892578125 C 117.440185546875 75.69198608398438 119 67.96537780761719 119 60 C 119 52.03461456298828 117.440185546875 44.30801391601563 114.363899230957 37.03485107421875 C 112.8853149414063 33.53907012939453 111.0551681518555 30.16732025146484 108.92431640625 27.01323699951172 C 106.8135375976563 23.88887023925781 104.3894195556641 20.95081329345703 101.7192993164063 18.28070068359375 C 99.04917907714844 15.61058044433594 96.11112976074219 13.18647003173828 92.98677062988281 11.07568359375 C 89.83268737792969 8.944831848144531 86.4609375 7.11468505859375 82.96514892578125 5.636100769042969 C 75.69198608398438 2.559814453125 67.96537780761719 1 60 1 M 60 0 C 93.1370849609375 0 120 26.8629150390625 120 60 C 120 93.1370849609375 93.1370849609375 120 60 120 C 26.8629150390625 120 0 93.1370849609375 0 60 C 0 26.8629150390625 26.8629150390625 0 60 0 Z"/>
            </g>
        </g>
        <line class="Tc qtat qtat-5" y1="301" transform="translate(498.199 1980.905)"/>
        <line class="Tc qtat qtat-12" x1="0.5" y1="231" transform="translate(777.699 2315.905)"/>
        <line class="Tc qtat qtat-19" y1="250.352" transform="translate(1017.699 1929.905)"/>
        <line class="Tc qtat qtat-26" y1="243.301" transform="translate(1295.199 2180.604)"/>
        <g class="qtat qtat-6" transform="translate(511.699 1984.256)">
            <path class="Ti" d="M47.968,8H16.806a2.035,2.035,0,0,0-2.032,2.032V28.163a5.408,5.408,0,0,0,.4,8.739A10.178,10.178,0,0,0,8,46.613V50H28.323V46.613a10.107,10.107,0,0,0-.378-2.71h3.617l.408-1.637,1.447.868,3.621-3.622-.867-1.446,1.635-.408V33.742H47.968A2.035,2.035,0,0,0,50,31.71V10.032A2.035,2.035,0,0,0,47.968,8ZM14.1,32.387a4.065,4.065,0,1,1,4.065,4.065A4.069,4.069,0,0,1,14.1,32.387Zm4.742-5.373V12.065h27.1V29.677H22.848A5.425,5.425,0,0,0,18.839,27.015Zm-.677,14.179a3.391,3.391,0,0,0,3.321-2.732c.174.071.342.152.511.234l-3.831,8.911L14.33,38.7c.169-.082.337-.163.511-.234A3.391,3.391,0,0,0,18.161,41.194Zm2.008-3.147a2.021,2.021,0,0,1-4.016,0,8.526,8.526,0,0,1,4.016,0ZM9.355,46.613a8.8,8.8,0,0,1,3.794-7.232l3.983,9.264h-4.39V43.226H11.387v5.419H9.355Zm17.613,2.032H24.936V43.226H23.581v5.419H19.19l3.983-9.264a8.8,8.8,0,0,1,3.794,7.231ZM36.452,36.6l-1.32.33-.362.137-.315.774.878,1.463-2.126,2.126-1.463-.878-.826.341L30.5,42.548H27.468A10.206,10.206,0,0,0,21.152,36.9a5.433,5.433,0,0,0,2.25-3.16h1.06a4.742,4.742,0,1,0,9.075,0h2.914ZM32.1,33.742a3.387,3.387,0,1,1-6.2,0ZM48.645,31.71a.678.678,0,0,1-.677.677H23.581a5.387,5.387,0,0,0-.178-1.355H47.29V10.71H17.484v16.3a5.367,5.367,0,0,0-1.355.352V10.032a.678.678,0,0,1,.677-.677H47.968a.678.678,0,0,1,.677.677Z" transform="translate(-8 -8)"/>
            <path class="Ti" d="M165.548,74.71h-2.71V72H152v6.774h10.839v-2.71h2.71v2.71h4.742v1.355h-4.742V86.9h10.839V80.129h-4.742V78.774h4.742V72H165.548Zm-4.065,2.71h-8.129V73.355h8.129Zm13.548,8.129H166.9V81.484h8.129ZM166.9,73.355h8.129v4.065H166.9Z" transform="translate(-139.806 -66.581)"/>
            <path class="Ti" d="M344,104h1.355v1.355H344Z" transform="translate(-315.548 -95.871)"/>
            <path class="Ti" d="M376,104h2.71v1.355H376Z" transform="translate(-344.839 -95.871)"/>
            <path class="Ti" d="M344,200h5.419v1.355H344Z" transform="translate(-315.548 -183.742)"/>
            <path class="Ti" d="M184,104h6.1v1.355H184Z" transform="translate(-169.097 -95.871)"/>
            <path class="Ti" d="M184,168h1.355v1.355H184Z" transform="translate(-169.097 -154.452)"/>
            <path class="Ti" d="M216,168h1.355v1.355H216Z" transform="translate(-198.387 -154.452)"/>
            <path class="Ti" d="M248,168h1.355v1.355H248Z" transform="translate(-227.677 -154.452)"/>
            <path class="Ti" d="M152,200h9.484v1.355H152Z" transform="translate(-139.806 -183.742)"/>
            <path class="Ti" d="M192,232h6.1v1.355H192Z" transform="translate(-176.419 -213.032)"/>
            <path class="Ti" d="M376,344h8.129v1.355H376Z" transform="translate(-344.839 -315.548)"/>
            <path class="Ti" d="M376,376h8.129v1.355H376Z" transform="translate(-344.839 -344.839)"/>
            <path class="Ti" d="M456,408h1.355v1.355H456Z" transform="translate(-418.064 -374.129)"/>
            <path class="Ti" d="M424,408h1.355v1.355H424Z" transform="translate(-388.774 -374.129)"/>
            <path class="Ti" d="M392,408h1.355v1.355H392Z" transform="translate(-359.484 -374.129)"/>
        </g>
        <g class="qtat qtat-27" transform="translate(1309.699 2264.103)">
            <path class="Ti" d="M38.1,384H32.678a.677.677,0,0,0-.677.677v2.71a.677.677,0,0,0,.677.677H38.1a.677.677,0,0,0,.677-.677v-2.71A.677.677,0,0,0,38.1,384Zm-.677,2.71H33.356v-1.355H37.42Z" transform="translate(-29.291 -351.488)"/>
            <path class="Ti" d="M41.324,232.133H27.1v-7.452A.677.677,0,0,0,26.42,224H.678a.678.678,0,0,0-.677.677v21.677a.677.677,0,0,0,.677.677H41.324a.677.677,0,0,0,.677-.677V232.81A.677.677,0,0,0,41.324,232.133Zm-9.484,7.914-7.653-6.559H39.493Zm-8.806-5.764,6.185,5.3-6.185,5.3Zm7.226,6.194,1.14.977a.676.676,0,0,0,.881,0l1.14-.977,6.072,5.2H24.187Zm4.2-.892,6.185-5.3v10.6Zm-12.106-7.452a.677.677,0,0,0-.677.677v10.161H1.356V229.423H10.84v6.1A.677.677,0,0,0,12,236l1.553-1.553L15.1,236a.677.677,0,0,0,1.156-.479v-6.1h9.484v2.71Zm-10.161-6.774H14.9v8.526l-.876-.876a.677.677,0,0,0-.958,0l-.876.876Zm13.548,2.71H16.259v-2.71h9.484Zm-14.9-2.71v2.71H1.356v-2.71ZM1.356,244.327H21.678v1.355H1.356Z" transform="translate(-0.001 -205.036)"/>
            <path class="Ti" d="M205.534,2.314v9.2h1.355v-9.2l2.231,2.231.958-.958L206.69.2a.677.677,0,0,0-.958,0l-3.387,3.387.958.958Z" transform="translate(-185.211 -0.001)"/>
            <path class="Ti" d="M365.534,58.314v9.2h1.355v-9.2l2.231,2.231.958-.958L366.69,56.2a.676.676,0,0,0-.958,0l-3.387,3.387.958.958Z" transform="translate(-331.663 -51.259)"/>
            <path class="Ti" d="M45.534,58.314v9.2h1.355v-9.2l2.231,2.231.958-.958L46.69,56.2a.677.677,0,0,0-.958,0l-3.387,3.387.958.958Z" transform="translate(-38.759 -51.259)"/>
            <path class="Ti" d="M240,152h1.355v1.355H240Z" transform="translate(-219.678 -139.133)"/>
        </g>
        <g class="qtat qtat-13" transform="translate(793.699 2402.306)">
            <g transform="translate(0 0)">
                <path class="Ti" d="M17.219,7.268l-1.182-.521c-.054-.2-.112-.386-.177-.568l.657-1.131a.678.678,0,0,0,.005-.67A8.993,8.993,0,0,0,15.37,2.767a.673.673,0,0,0-.656-.208l-1.244.285q-.217-.174-.454-.335L12.9,1.192a.678.678,0,0,0-.39-.552A8.6,8.6,0,0,0,10.65.016.674.674,0,0,0,10,.237L9.129,1.245H8.608L7.74.237A.673.673,0,0,0,7.088.016,8.61,8.61,0,0,0,5.232.639a.678.678,0,0,0-.39.553l-.12,1.316c-.157.107-.309.219-.454.335L3.024,2.558a.672.672,0,0,0-.656.208A8.979,8.979,0,0,0,1.215,4.378a.678.678,0,0,0,.005.67l.657,1.131c-.065.181-.123.369-.177.568L.519,7.268a.677.677,0,0,0-.4.62v1.84a.677.677,0,0,0,.4.62l1.182.521c.054.2.112.386.177.568L1.22,12.568a.678.678,0,0,0-.005.67,8.993,8.993,0,0,0,1.152,1.611.675.675,0,0,0,.656.208l1.244-.285q.217.174.454.335l.12,1.316a.678.678,0,0,0,.39.552,8.6,8.6,0,0,0,1.856.623.675.675,0,0,0,.652-.221l.868-1.007h.521L10,17.379a.676.676,0,0,0,.513.235.661.661,0,0,0,.139-.015,8.61,8.61,0,0,0,1.856-.623.678.678,0,0,0,.39-.553l.12-1.316c.157-.107.309-.219.454-.335l1.244.284a.674.674,0,0,0,.656-.208,8.979,8.979,0,0,0,1.152-1.611.678.678,0,0,0-.005-.67l-.657-1.131c.065-.181.123-.369.177-.568l1.182-.521a.677.677,0,0,0,.4-.62V7.888A.677.677,0,0,0,17.219,7.268Zm-.951,2.019-1.082.477a.678.678,0,0,0-.386.468,6.226,6.226,0,0,1-.314,1,.678.678,0,0,0,.04.6l.62,1.068a7.681,7.681,0,0,1-.53.74l-1.171-.268a.672.672,0,0,0-.6.152,6.182,6.182,0,0,1-.831.615.677.677,0,0,0-.318.514L11.582,15.9a7.493,7.493,0,0,1-.828.281l-.8-.93a.678.678,0,0,0-.513-.235H8.3a.678.678,0,0,0-.513.235l-.8.93a7.5,7.5,0,0,1-.829-.281L6.04,14.657a.678.678,0,0,0-.318-.513,6.106,6.106,0,0,1-.83-.614.672.672,0,0,0-.6-.152l-1.171.268a7.7,7.7,0,0,1-.53-.74l.62-1.068a.678.678,0,0,0,.04-.6,6.226,6.226,0,0,1-.314-1,.678.678,0,0,0-.386-.468L1.47,9.287V8.329l1.082-.477a.678.678,0,0,0,.386-.468,6.226,6.226,0,0,1,.314-1,.678.678,0,0,0-.04-.6l-.62-1.068a7.68,7.68,0,0,1,.53-.74l1.171.268a.674.674,0,0,0,.6-.152,6.182,6.182,0,0,1,.831-.615.677.677,0,0,0,.318-.514l.114-1.243a7.493,7.493,0,0,1,.828-.281l.8.93A.678.678,0,0,0,8.3,2.6H9.439a.678.678,0,0,0,.513-.235l.8-.93a7.5,7.5,0,0,1,.829.281L11.7,2.959a.678.678,0,0,0,.318.513,6.106,6.106,0,0,1,.83.614.674.674,0,0,0,.6.152l1.171-.268a7.681,7.681,0,0,1,.53.74l-.62,1.068a.678.678,0,0,0-.04.6,6.226,6.226,0,0,1,.314,1,.678.678,0,0,0,.386.468l1.082.477v.958Z" transform="translate(-0.115 -0.001)"/>
            </g>
            <g transform="translate(4.012 4.065)">
                <path class="Ti" d="M52.233,48.005a4.742,4.742,0,1,0,4.742,4.742A4.742,4.742,0,0,0,52.233,48.005Zm0,8.129a3.387,3.387,0,1,1,3.387-3.387A3.387,3.387,0,0,1,52.233,56.134Z" transform="translate(-47.491 -48.005)"/>
            </g>
            <g transform="translate(25.733 0)">
                <path class="Ti" d="M318.419,6.065l-.935-.413c-.036-.131-.076-.257-.118-.379l.521-.9a.679.679,0,0,0,.005-.671,7.658,7.658,0,0,0-.975-1.362.673.673,0,0,0-.656-.208l-.984.225q-.145-.113-.3-.22l-.1-1.044a.676.676,0,0,0-.39-.553,7.334,7.334,0,0,0-1.571-.527.673.673,0,0,0-.652.221l-.689.8h-.331l-.689-.8a.672.672,0,0,0-.652-.221,7.33,7.33,0,0,0-1.571.527.676.676,0,0,0-.39.553l-.1,1.044q-.153.106-.3.22l-.984-.225a.674.674,0,0,0-.656.208,7.606,7.606,0,0,0-.974,1.363.678.678,0,0,0,.005.67l.521.9q-.064.184-.118.38l-.935.413a.677.677,0,0,0-.4.62V8.218a.677.677,0,0,0,.4.62l.935.413c.036.131.076.257.118.379l-.521.9a.679.679,0,0,0-.005.671,7.652,7.652,0,0,0,.975,1.362.674.674,0,0,0,.656.208l.983-.226c.1.076.2.15.3.22l.1,1.044a.676.676,0,0,0,.39.553,7.334,7.334,0,0,0,1.571.527.675.675,0,0,0,.652-.221l.689-.8h.331l.689.8a.676.676,0,0,0,.513.235.661.661,0,0,0,.139-.015,7.329,7.329,0,0,0,1.571-.527.676.676,0,0,0,.39-.553l.1-1.044q.153-.106.3-.22l.984.225a.674.674,0,0,0,.656-.208,7.659,7.659,0,0,0,.975-1.362.679.679,0,0,0-.005-.671l-.521-.9c.042-.122.082-.248.118-.379l.935-.413a.677.677,0,0,0,.4-.62V6.685A.677.677,0,0,0,318.419,6.065Zm-.951,1.712-.834.368a.675.675,0,0,0-.387.47,5.062,5.062,0,0,1-.255.817.68.68,0,0,0,.04.6l.482.831q-.164.254-.353.495l-.908-.208a.67.67,0,0,0-.6.152,5.015,5.015,0,0,1-.676.5.678.678,0,0,0-.319.515l-.088.967c-.182.071-.365.134-.546.185l-.62-.72a.678.678,0,0,0-.513-.235h-.951a.678.678,0,0,0-.513.235l-.621.72c-.182-.052-.365-.114-.546-.185l-.088-.967a.678.678,0,0,0-.319-.515,4.971,4.971,0,0,1-.675-.5.682.682,0,0,0-.6-.153l-.907.208c-.126-.159-.244-.325-.353-.494l.482-.831a.68.68,0,0,0,.04-.6,5.062,5.062,0,0,1-.255-.817.675.675,0,0,0-.387-.47l-.834-.368V7.126l.834-.368a.675.675,0,0,0,.387-.47,5.1,5.1,0,0,1,.255-.818.678.678,0,0,0-.04-.6l-.482-.831c.108-.169.226-.334.353-.494l.908.208a.674.674,0,0,0,.6-.152,5.014,5.014,0,0,1,.676-.5.678.678,0,0,0,.319-.515l.088-.967c.182-.071.365-.134.546-.185l.621.72a.678.678,0,0,0,.513.235h.951a.678.678,0,0,0,.513-.235l.62-.72c.182.052.365.114.546.185l.088.967a.678.678,0,0,0,.319.515,5.015,5.015,0,0,1,.676.5.673.673,0,0,0,.6.152l.908-.208q.19.24.353.495l-.482.831a.68.68,0,0,0-.04.6,5.065,5.065,0,0,1,.255.817.675.675,0,0,0,.387.47l.834.368Z" transform="translate(-304.007 0.001)"/>
            </g>
            <g transform="translate(29.754 4.065)">
                <path class="Ti" d="M354.878,48.005a3.387,3.387,0,1,0,3.387,3.387A3.387,3.387,0,0,0,354.878,48.005Zm0,5.419a2.032,2.032,0,1,1,2.032-2.032A2.032,2.032,0,0,1,354.878,53.424Z" transform="translate(-351.491 -48.005)"/>
            </g>
            <g transform="translate(20.347 20.4)">
                <path class="Ti" d="M260.032,249.182l-.982-.206c-.04-.17-.086-.34-.137-.509l.753-.675a.677.677,0,0,0,.171-.77,10.18,10.18,0,0,0-1.244-2.132.68.68,0,0,0-.753-.236l-.947.311c-.12-.128-.245-.253-.373-.373l.311-.946a.677.677,0,0,0-.235-.752,10.136,10.136,0,0,0-2.132-1.246.681.681,0,0,0-.77.171l-.675.753c-.169-.052-.339-.1-.509-.138l-.206-.982a.678.678,0,0,0-.663-.538h-2.31a.678.678,0,0,0-.663.538l-.206.982c-.17.04-.34.086-.509.137l-.675-.753a.68.68,0,0,0-.77-.171,10.18,10.18,0,0,0-2.132,1.244.678.678,0,0,0-.236.753l.311.947c-.128.12-.253.245-.373.373l-.946-.311a.681.681,0,0,0-.752.236,10.139,10.139,0,0,0-1.246,2.132.677.677,0,0,0,.171.77l.753.675c-.052.169-.1.339-.138.509l-.982.206a.678.678,0,0,0-.538.663v2.31a.678.678,0,0,0,.538.663l.982.206c.04.17.086.34.137.509l-.753.675a.677.677,0,0,0-.171.77,10.18,10.18,0,0,0,1.244,2.132.68.68,0,0,0,.753.236l.947-.311c.12.128.245.253.373.373l-.311.946a.677.677,0,0,0,.235.752,10.138,10.138,0,0,0,2.132,1.246.675.675,0,0,0,.77-.171l.675-.753c.169.052.339.1.509.138l.206.982a.678.678,0,0,0,.663.538h2.31a.678.678,0,0,0,.663-.538l.206-.982c.17-.04.34-.086.509-.137l.675.753a.675.675,0,0,0,.77.171,10.18,10.18,0,0,0,2.132-1.244.678.678,0,0,0,.236-.753l-.311-.947c.128-.12.253-.245.373-.373l.946.311a.679.679,0,0,0,.752-.236,10.14,10.14,0,0,0,1.246-2.132.677.677,0,0,0-.171-.77l-.753-.675c.052-.169.1-.339.138-.509l.982-.206a.678.678,0,0,0,.538-.663v-2.31A.678.678,0,0,0,260.032,249.182Zm-.817,2.423-.876.185a.677.677,0,0,0-.527.542,7.367,7.367,0,0,1-.318,1.181.677.677,0,0,0,.186.734l.711.636a8.9,8.9,0,0,1-.6,1.02l-.9-.294a.68.68,0,0,0-.729.206,7.4,7.4,0,0,1-.867.867.679.679,0,0,0-.205.728l.294.894a8.849,8.849,0,0,1-1.02.6l-.637-.711a.681.681,0,0,0-.734-.186,7.293,7.293,0,0,1-1.18.318.677.677,0,0,0-.542.527l-.185.877h-1.211l-.185-.877a.677.677,0,0,0-.542-.527,7.369,7.369,0,0,1-1.181-.318h0a.682.682,0,0,0-.734.186l-.636.711a8.9,8.9,0,0,1-1.02-.6l.294-.9a.679.679,0,0,0-.206-.729,7.4,7.4,0,0,1-.867-.867.681.681,0,0,0-.728-.205l-.894.294a8.843,8.843,0,0,1-.6-1.02l.711-.637a.678.678,0,0,0,.186-.734,7.3,7.3,0,0,1-.318-1.18.677.677,0,0,0-.527-.542l-.877-.185v-1.211l.877-.185a.677.677,0,0,0,.527-.542,7.368,7.368,0,0,1,.318-1.181.677.677,0,0,0-.186-.734l-.711-.636a8.9,8.9,0,0,1,.6-1.02l.9.294a.68.68,0,0,0,.729-.206,7.4,7.4,0,0,1,.867-.867.679.679,0,0,0,.205-.728l-.294-.894a8.843,8.843,0,0,1,1.02-.6l.637.711a.68.68,0,0,0,.734.186,7.3,7.3,0,0,1,1.18-.318.677.677,0,0,0,.542-.527l.185-.877h1.211l.185.877a.677.677,0,0,0,.542.527,7.364,7.364,0,0,1,1.181.318.678.678,0,0,0,.734-.186l.636-.711a8.9,8.9,0,0,1,1.02.6l-.294.9a.679.679,0,0,0,.206.729,7.4,7.4,0,0,1,.867.867.683.683,0,0,0,.728.205l.894-.294a8.843,8.843,0,0,1,.6,1.02l-.711.637a.678.678,0,0,0-.186.734,7.3,7.3,0,0,1,.318,1.18.677.677,0,0,0,.527.542l.877.185Z" transform="translate(-240.402 -240.916)"/>
            </g>
            <g transform="translate(24.334 24.388)">
                <path class="Ti" d="M293.588,288.005a6.1,6.1,0,1,0,6.1,6.1A6.1,6.1,0,0,0,293.588,288.005Zm0,10.839a4.742,4.742,0,1,1,4.742-4.742A4.748,4.748,0,0,1,293.588,298.844Z" transform="translate(-287.491 -288.005)"/>
            </g>
            <g transform="translate(18.915 7.452)">
                <rect class="Ti" width="5.419" height="1.355"/>
            </g>
            <g transform="translate(3.334 18.291)">
                <path class="Ti" d="M55.017,227.254a.677.677,0,0,0-.356-.356h0l-4.742-2.032a.677.677,0,0,0-.944.622v1.355H40.846V216H39.491V227.52a.677.677,0,0,0,.677.677h8.807v1.355a.677.677,0,0,0,.676.677h0a.667.667,0,0,0,.267-.055l4.742-2.032A.677.677,0,0,0,55.017,227.254Zm-4.687,1.271v-2.01l2.345,1Z" transform="translate(-39.491 -216.004)"/>
            </g>
            <g transform="translate(27.242 28.018)">
                <path class="Ti" d="M327.212,330.88l-2.912,3.495-1.508-1.508-.958.958,2.032,2.032a.675.675,0,0,0,.479.2h.03a.678.678,0,0,0,.49-.243l3.387-4.065Z" transform="translate(-321.834 -330.88)"/>
            </g>
        </g>
        <g class="qtat qtat-20" transform="translate(1030.699 1928.616)">
            <path class="Ti" d="M21.644,279.945l.032.007,6.8,1.252a8.8,8.8,0,0,0,5.437-.768.5.5,0,0,0,.062-.036l11.761-8.075a.507.507,0,0,0,.148-.68,3.228,3.228,0,0,0-4.3-1.177l-.2.108a2.762,2.762,0,0,0-3.282-.822l-.011.006-.473.255a3.594,3.594,0,0,0-4.115-.372l-2.548,1.386H27.557a4.9,4.9,0,0,1-2.12-.486l-.466-.225a8,8,0,0,0-8.328.813c-.011.009-.022.017-.032.026l-1.126,1a3.9,3.9,0,0,1-1.474.822l-.639-2.1a.507.507,0,0,0-.485-.359H7.438a.507.507,0,0,0-.5.568L8.75,285.979a.507.507,0,0,0,.5.446h8.17a.507.507,0,0,0,.485-.655l-1.074-3.522,3.343-2.113A2.014,2.014,0,0,1,21.644,279.945Zm16.916-9.288a1.732,1.732,0,0,1,1.894.419l-4.46,2.406-.262.138a3.868,3.868,0,0,0-.611-1.11Zm-4.573-.126.012-.007a2.578,2.578,0,0,1,2.623.025l-2.267,1.221a3.857,3.857,0,0,0-1.448-.652ZM9.7,285.411,8.01,271.538h4.5l4.229,13.873Zm9.945-6.141-3.12,1.972L14.3,273.953a4.922,4.922,0,0,0,1.852-1.036l1.111-.989a6.991,6.991,0,0,1,7.261-.7l.466.225a5.915,5.915,0,0,0,2.562.587H32.08a2.861,2.861,0,0,1,2.806,2.323l-3.279-.149a19.637,19.637,0,0,0-3.568.165.507.507,0,1,0,.139,1,18.614,18.614,0,0,1,3.383-.156l3.858.175h.023a.507.507,0,0,0,.507-.507c0-.082,0-.163-.009-.244l.529-.279,5.59-3.015a2.215,2.215,0,0,1,2.666.427l-11.3,7.755a7.773,7.773,0,0,1-4.773.663l-6.783-1.249a3.023,3.023,0,0,0-2.2.3l-.023.014Z" transform="translate(-6.93 -246.372)"/>
            <path class="Ti" d="M58.695,419a1.6,1.6,0,1,0,1.6-1.6A1.6,1.6,0,0,0,58.695,419Zm1.6-.582a.582.582,0,1,1-.582.582A.582.582,0,0,1,60.291,418.414Z" transform="translate(-54.312 -382.056)"/>
            <path class="Ti" d="M140.242,20.51a.506.506,0,0,0,.28,0,16.133,16.133,0,0,0,4.454-2.2,9.673,9.673,0,0,0,4.513-8.015v-4.9a.507.507,0,0,0-.307-.466l-.055-.024A40.5,40.5,0,0,1,140.835.1a.507.507,0,0,0-.608,0,40.522,40.522,0,0,1-8.291,4.8l-.056.024a.507.507,0,0,0-.307.466v4.9a9.753,9.753,0,0,0,4.36,8.01A15.4,15.4,0,0,0,140.242,20.51ZM132.587,10.3V5.725a41.531,41.531,0,0,0,7.944-4.586,41.54,41.54,0,0,0,7.944,4.586V10.3a8.037,8.037,0,0,1-2.4,5.755v-.1a.507.507,0,0,0-1.014,0v.517a.5.5,0,0,0,.16.37q-.383.32-.81.625a15.626,15.626,0,0,1-4.026,2.026,14.864,14.864,0,0,1-3.879-2.022q-.384-.283-.73-.579a.507.507,0,0,0,.222-.419v-.517a.507.507,0,1,0-1.014,0v.188A8.207,8.207,0,0,1,132.587,10.3Z" transform="translate(-121.019 -0.001)"/>
            <path class="Ti" d="M231.881,182.425a.507.507,0,0,0-.507.507v.517a.507.507,0,0,0,1.014,0v-.517A.507.507,0,0,0,231.881,182.425Z" transform="translate(-212.369 -166.978)"/>
            <path class="Ti" d="M251.716,182.425a.507.507,0,0,0-.507.507v.517a.507.507,0,1,0,1.014,0v-.517A.507.507,0,0,0,251.716,182.425Z" transform="translate(-230.524 -166.978)"/>
            <path class="Ti" d="M271.044,182.932v.517a.507.507,0,1,0,1.014,0v-.517a.507.507,0,1,0-1.014,0Z" transform="translate(-248.68 -166.978)"/>
            <path class="Ti" d="M212.049,182.425a.507.507,0,0,0-.507.507v.517a.507.507,0,0,0,1.014,0v-.517A.507.507,0,0,0,212.049,182.425Z" transform="translate(-194.216 -166.978)"/>
            <path class="Ti" d="M192.214,183.956a.507.507,0,0,0,.507-.507v-.517a.507.507,0,0,0-1.014,0v.517A.507.507,0,0,0,192.214,183.956Z" transform="translate(-176.061 -166.978)"/>
            <path class="Ti" d="M202.272,99.635a.507.507,0,0,0,.717,0l3.363-3.363a.507.507,0,0,0-.717-.717l-3,3.005L201.075,97a.507.507,0,0,0-.717.717Z" transform="translate(-183.843 -87.33)"/>
        </g>
        <g transform="translate(576.699 -1590.595)">
            <g class="Tf qtat qtat-17" transform="translate(407 3737)">
                <circle class="Tj" cx="34" cy="34" r="34"/>
                <circle class="Tk" cx="34" cy="34" r="33.5"/>
            </g>
            <g class="qtat qtat-16">
                <g class="Tr" transform="matrix(1, 0, 0, 1, -576.72, 3389.41)">
                    <circle class="Tg" cx="11" cy="11" r="11" transform="translate(1006.72 370.59)"/>
                </g>
                <g class="Tq" transform="matrix(1, 0, 0, 1, -576.72, 3389.41)">
                    <circle class="Tg" cx="11" cy="11" r="11" transform="translate(1006.72 370.59)"/>
                </g>
                <circle class="Tg" cx="11" cy="11" r="11" transform="translate(430 3760)"/>
            </g>
            <g class="Th qtat qtat-18" transform="translate(381 3711)">
                <path class="Tj" d="M60,0A60,60,0,1,1,0,60,60,60,0,0,1,60,0Z"/>
                <path class="Tl" d="M 60 1 C 52.03461456298828 1 44.30801391601563 2.559814453125 37.03485107421875 5.636100769042969 C 33.53907012939453 7.11468505859375 30.16732025146484 8.944831848144531 27.01323699951172 11.07568359375 C 23.88887023925781 13.18647003173828 20.95081329345703 15.61058044433594 18.28070068359375 18.28070068359375 C 15.61058044433594 20.95081329345703 13.18647003173828 23.88887023925781 11.07568359375 27.01323699951172 C 8.944831848144531 30.16732025146484 7.11468505859375 33.53907012939453 5.636100769042969 37.03485107421875 C 2.559814453125 44.30801391601563 1 52.03461456298828 1 60 C 1 67.96537780761719 2.559814453125 75.69198608398438 5.636100769042969 82.96514892578125 C 7.11468505859375 86.4609375 8.944831848144531 89.83268737792969 11.07568359375 92.98677062988281 C 13.18647003173828 96.11112976074219 15.61058044433594 99.04917907714844 18.28070068359375 101.7192993164063 C 20.95081329345703 104.3894195556641 23.88887023925781 106.8135375976563 27.01323699951172 108.92431640625 C 30.16732025146484 111.0551681518555 33.53907012939453 112.8853149414063 37.03485107421875 114.363899230957 C 44.30801391601563 117.440185546875 52.03461456298828 119 60 119 C 67.96537780761719 119 75.69198608398438 117.440185546875 82.96514892578125 114.363899230957 C 86.4609375 112.8853149414063 89.83268737792969 111.0551681518555 92.98677062988281 108.92431640625 C 96.11112976074219 106.8135375976563 99.04917907714844 104.3894195556641 101.7192993164063 101.7192993164063 C 104.3894195556641 99.04917907714844 106.8135375976563 96.11112976074219 108.92431640625 92.98677062988281 C 111.0551681518555 89.83268737792969 112.8853149414063 86.4609375 114.363899230957 82.96514892578125 C 117.440185546875 75.69198608398438 119 67.96537780761719 119 60 C 119 52.03461456298828 117.440185546875 44.30801391601563 114.363899230957 37.03485107421875 C 112.8853149414063 33.53907012939453 111.0551681518555 30.16732025146484 108.92431640625 27.01323699951172 C 106.8135375976563 23.88887023925781 104.3894195556641 20.95081329345703 101.7192993164063 18.28070068359375 C 99.04917907714844 15.61058044433594 96.11112976074219 13.18647003173828 92.98677062988281 11.07568359375 C 89.83268737792969 8.944831848144531 86.4609375 7.11468505859375 82.96514892578125 5.636100769042969 C 75.69198608398438 2.559814453125 67.96537780761719 1 60 1 M 60 0 C 93.1370849609375 0 120 26.8629150390625 120 60 C 120 93.1370849609375 93.1370849609375 120 60 120 C 26.8629150390625 120 0 93.1370849609375 0 60 C 0 26.8629150390625 26.8629150390625 0 60 0 Z"/>
            </g>
        </g>
        <g transform="translate(854.699 -1584.595)">
            <g class="Tf qtat qtat-24" transform="translate(407 3737)">
                <circle class="Tj" cx="34" cy="34" r="34"/>
                <circle class="Tk" cx="34" cy="34" r="33.5"/>
            </g>
            <g class="qtat qtat-23">
                <g class="Tp" transform="matrix(1, 0, 0, 1, -854.72, 3383.41)">
                    <circle class="Tg" cx="11" cy="11" r="11" transform="translate(1284.72 376.59)"/>
                </g>
                <g class="To" transform="matrix(1, 0, 0, 1, -854.72, 3383.41)">
                    <circle class="Tg" cx="11" cy="11" r="11" transform="translate(1284.72 376.59)"/>
                </g>
                <circle class="Tg" cx="11" cy="11" r="11" transform="translate(430 3760)"/>
            </g>
            <g class="Th qtat qtat-25" transform="translate(381 3711)">
                <path class="Tj" d="M60,0A60,60,0,1,1,0,60,60,60,0,0,1,60,0Z"/>
                <path class="Tl" d="M 60 1 C 52.03461456298828 1 44.30801391601563 2.559814453125 37.03485107421875 5.636100769042969 C 33.53907012939453 7.11468505859375 30.16732025146484 8.944831848144531 27.01323699951172 11.07568359375 C 23.88887023925781 13.18647003173828 20.95081329345703 15.61058044433594 18.28070068359375 18.28070068359375 C 15.61058044433594 20.95081329345703 13.18647003173828 23.88887023925781 11.07568359375 27.01323699951172 C 8.944831848144531 30.16732025146484 7.11468505859375 33.53907012939453 5.636100769042969 37.03485107421875 C 2.559814453125 44.30801391601563 1 52.03461456298828 1 60 C 1 67.96537780761719 2.559814453125 75.69198608398438 5.636100769042969 82.96514892578125 C 7.11468505859375 86.4609375 8.944831848144531 89.83268737792969 11.07568359375 92.98677062988281 C 13.18647003173828 96.11112976074219 15.61058044433594 99.04917907714844 18.28070068359375 101.7192993164063 C 20.95081329345703 104.3894195556641 23.88887023925781 106.8135375976563 27.01323699951172 108.92431640625 C 30.16732025146484 111.0551681518555 33.53907012939453 112.8853149414063 37.03485107421875 114.363899230957 C 44.30801391601563 117.440185546875 52.03461456298828 119 60 119 C 67.96537780761719 119 75.69198608398438 117.440185546875 82.96514892578125 114.363899230957 C 86.4609375 112.8853149414063 89.83268737792969 111.0551681518555 92.98677062988281 108.92431640625 C 96.11112976074219 106.8135375976563 99.04917907714844 104.3894195556641 101.7192993164063 101.7192993164063 C 104.3894195556641 99.04917907714844 106.8135375976563 96.11112976074219 108.92431640625 92.98677062988281 C 111.0551681518555 89.83268737792969 112.8853149414063 86.4609375 114.363899230957 82.96514892578125 C 117.440185546875 75.69198608398438 119 67.96537780761719 119 60 C 119 52.03461456298828 117.440185546875 44.30801391601563 114.363899230957 37.03485107421875 C 112.8853149414063 33.53907012939453 111.0551681518555 30.16732025146484 108.92431640625 27.01323699951172 C 106.8135375976563 23.88887023925781 104.3894195556641 20.95081329345703 101.7192993164063 18.28070068359375 C 99.04917907714844 15.61058044433594 96.11112976074219 13.18647003173828 92.98677062988281 11.07568359375 C 89.83268737792969 8.944831848144531 86.4609375 7.11468505859375 82.96514892578125 5.636100769042969 C 75.69198608398438 2.559814453125 67.96537780761719 1 60 1 M 60 0 C 93.1370849609375 0 120 26.8629150390625 120 60 C 120 93.1370849609375 93.1370849609375 120 60 120 C 26.8629150390625 120 0 93.1370849609375 0 60 C 0 26.8629150390625 26.8629150390625 0 60 0 Z"/>
            </g>
        </g>
        <g transform="translate(56.699 -1491.595)">
            <g class="Tf qtat qtat-3" transform="translate(407 3737)">
                <circle class="Tj" cx="34" cy="34" r="34"/>
                <circle class="Tk" cx="34" cy="34" r="33.5"/>
            </g>
            <g class="qtat qtat-2">
                <g class="Tn" transform="matrix(1, 0, 0, 1, -56.72, 3290.41)">
                    <circle class="Tg" cx="11" cy="11" r="11" transform="translate(486.72 469.59)"/>
                </g>
                <g class="Tm" transform="matrix(1, 0, 0, 1, -56.72, 3290.41)">
                    <circle class="Tg" cx="11" cy="11" r="11" transform="translate(486.72 469.59)"/>
                </g>
                <circle class="Tg" cx="11" cy="11" r="11" transform="translate(430 3760)"/>
            </g>
            <g class="Th qtat qtat-4" transform="translate(381 3711)">
                <path class="Tj" d="M60,0A60,60,0,1,1,0,60,60,60,0,0,1,60,0Z"/>
                <path class="Tl" d="M 60 1 C 52.03461456298828 1 44.30801391601563 2.559814453125 37.03485107421875 5.636100769042969 C 33.53907012939453 7.11468505859375 30.16732025146484 8.944831848144531 27.01323699951172 11.07568359375 C 23.88887023925781 13.18647003173828 20.95081329345703 15.61058044433594 18.28070068359375 18.28070068359375 C 15.61058044433594 20.95081329345703 13.18647003173828 23.88887023925781 11.07568359375 27.01323699951172 C 8.944831848144531 30.16732025146484 7.11468505859375 33.53907012939453 5.636100769042969 37.03485107421875 C 2.559814453125 44.30801391601563 1 52.03461456298828 1 60 C 1 67.96537780761719 2.559814453125 75.69198608398438 5.636100769042969 82.96514892578125 C 7.11468505859375 86.4609375 8.944831848144531 89.83268737792969 11.07568359375 92.98677062988281 C 13.18647003173828 96.11112976074219 15.61058044433594 99.04917907714844 18.28070068359375 101.7192993164063 C 20.95081329345703 104.3894195556641 23.88887023925781 106.8135375976563 27.01323699951172 108.92431640625 C 30.16732025146484 111.0551681518555 33.53907012939453 112.8853149414063 37.03485107421875 114.363899230957 C 44.30801391601563 117.440185546875 52.03461456298828 119 60 119 C 67.96537780761719 119 75.69198608398438 117.440185546875 82.96514892578125 114.363899230957 C 86.4609375 112.8853149414063 89.83268737792969 111.0551681518555 92.98677062988281 108.92431640625 C 96.11112976074219 106.8135375976563 99.04917907714844 104.3894195556641 101.7192993164063 101.7192993164063 C 104.3894195556641 99.04917907714844 106.8135375976563 96.11112976074219 108.92431640625 92.98677062988281 C 111.0551681518555 89.83268737792969 112.8853149414063 86.4609375 114.363899230957 82.96514892578125 C 117.440185546875 75.69198608398438 119 67.96537780761719 119 60 C 119 52.03461456298828 117.440185546875 44.30801391601563 114.363899230957 37.03485107421875 C 112.8853149414063 33.53907012939453 111.0551681518555 30.16732025146484 108.92431640625 27.01323699951172 C 106.8135375976563 23.88887023925781 104.3894195556641 20.95081329345703 101.7192993164063 18.28070068359375 C 99.04917907714844 15.61058044433594 96.11112976074219 13.18647003173828 92.98677062988281 11.07568359375 C 89.83268737792969 8.944831848144531 86.4609375 7.11468505859375 82.96514892578125 5.636100769042969 C 75.69198608398438 2.559814453125 67.96537780761719 1 60 1 M 60 0 C 93.1370849609375 0 120 26.8629150390625 120 60 C 120 93.1370849609375 93.1370849609375 120 60 120 C 26.8629150390625 120 0 93.1370849609375 0 60 C 0 26.8629150390625 26.8629150390625 0 60 0 Z"/>
            </g>
        </g>
    </g>
</svg>